<svg xmlns="http://www.w3.org/2000/svg" xml:lang="en" height="556.456pt" width="238.3492pt" viewBox="-127.80920000000003 -44.480000000000004 238.3492 556.456"><path d="M -97.2 226.8 a 4.05 4.05 -270 1 1 0.0 8.099999999999994" style="stroke:black;fill:none;stroke-width:2.0;" /><path d="M -97.2 234.9 a 4.05 4.05 -270 1 1 0.0 8.099999999999994" style="stroke:black;fill:none;stroke-width:2.0;" /><path d="M -97.2 243.0 a 4.05 4.05 -270 1 1 0.0 8.099999999999994" style="stroke:black;fill:none;stroke-width:2.0;" /><path d="M -97.2 251.1 a 4.05 4.05 -270 1 1 0.0 8.099999999999994" style="stroke:black;fill:none;stroke-width:2.0;" /><path d="M 0.0,-0.0 L 0.0,-12.96" style="stroke:black;fill:none;stroke-width:2.0;stroke-linecap:round;stroke-linejoin:round;" /><path d="M 0.0,-12.96 L -6.074999999999999,-12.96" style="stroke:black;fill:none;stroke-width:2.0;stroke-linecap:round;stroke-linejoin:round;" /><path d="M 0.0,-12.96 L 6.074999999999999,-12.96" style="stroke:black;fill:none;stroke-width:2.0;stroke-linecap:round;stroke-linejoin:round;" /><path d="M 0.0,-0.0 L -8.927675165784204e-15,48.599999999999994 L -1.785535033156841e-14,97.19999999999999" style="stroke:black;fill:none;stroke-width:2.0;stroke-linecap:round;stroke-linejoin:round;" /><path d="M -1.785535033156841e-14,97.19999999999999 L -2.3807133775424544e-14,129.6 L 8.099999999999975,132.29999999999998 L -8.100000000000025,137.7 L 8.099999999999973,143.09999999999997 L -8.100000000000026,148.49999999999997 L 8.099999999999971,153.9 L -8.100000000000028,159.29999999999998 L -2.975891721928068e-14,162.0 L -3.571070066313682e-14,194.39999999999998" style="stroke:black;fill:none;stroke-width:2.0;stroke-linecap:round;stroke-linejoin:round;" /><path d="M -3.571070066313682e-14,194.39999999999998 L -4.4638375828921025e-14,243.0 L -5.3566050994705226e-14,291.59999999999997" style="stroke:black;fill:none;stroke-width:2.0;stroke-linecap:round;stroke-linejoin:round;" /><path d="M -5.3566050994705226e-14,291.59999999999997 L -5.951783443856137e-14,324.0 L 8.09999999999994,326.7 L -8.10000000000006,332.09999999999997 L 8.099999999999937,337.49999999999994 L -8.100000000000062,342.9 L 8.099999999999936,348.3 L -8.100000000000064,353.7 L -6.54696178824175e-14,356.4 L -7.142140132627363e-14,388.79999999999995" style="stroke:black;fill:none;stroke-width:2.0;stroke-linecap:round;stroke-linejoin:round;" /><path d="M -7.142140132627363e-14,388.79999999999995 L -8.034907649205784e-14,437.4 L -8.927675165784205e-14,486.0" style="stroke:black;fill:none;stroke-width:2.0;stroke-linecap:round;stroke-linejoin:round;" /><path d="M -8.927675165784205e-14,486.0 L -8.927675165784205e-14,498.96 L -8.10000000000009,498.96 L 8.09999999999991,498.96 M -5.670000000000089,502.84799999999996 L 5.66999999999991,502.84799999999996 M -1.6200000000000894,506.736 L 1.6199999999999108,506.736" style="stroke:black;fill:none;stroke-width:2.0;stroke-linecap:round;stroke-linejoin:round;" /><path d="M -3.571070066313682e-14,194.39999999999998 L 48.59999999999996,194.39999999999998 L 97.19999999999996,194.39999999999998" style="stroke:black;fill:none;stroke-width:2.0;stroke-linecap:round;stroke-linejoin:round;" /><path d="M 97.19999999999996,194.39999999999998 L 97.19999999999995,240.084 M 105.29999999999995,240.084 L 89.09999999999995,240.084 M 105.29999999999995,245.916 L 89.09999999999995,245.916 M 97.19999999999995,245.916 L 97.19999999999995,291.59999999999997" style="stroke:black;fill:none;stroke-width:2.0;stroke-linecap:round;stroke-linejoin:round;" /><path d="M 97.19999999999995,291.59999999999997 L 97.19999999999993,340.2 L 97.19999999999993,388.79999999999995" style="stroke:black;fill:none;stroke-width:2.0;stroke-linecap:round;stroke-linejoin:round;" /><path d="M 97.19999999999993,388.79999999999995 L 97.19999999999992,437.4 L 97.19999999999992,486.0" style="stroke:black;fill:none;stroke-width:2.0;stroke-linecap:round;stroke-linejoin:round;" /><path d="M 97.19999999999992,486.0 L 48.59999999999992,486.0 L -7.194245199571014e-14,486.0" style="stroke:black;fill:none;stroke-width:2.0;stroke-linecap:round;stroke-linejoin:round;" /><path d="M -3.571070066313682e-14,194.39999999999998 L -48.60000000000004,194.39999999999998 L -97.20000000000003,194.39999999999998" style="stroke:black;fill:none;stroke-width:2.0;stroke-linecap:round;stroke-linejoin:round;" /><path d="M -97.20000000000003,194.39999999999998 L -97.20000000000003,226.79999999999998 M -97.20000000000005,259.2 L -97.20000000000005,291.59999999999997" style="stroke:black;fill:none;stroke-width:2.0;stroke-linecap:round;stroke-linejoin:round;" /><path d="M -97.20000000000005,291.59999999999997 L -97.20000000000006,340.2 L -97.20000000000006,388.79999999999995" style="stroke:black;fill:none;stroke-width:2.0;stroke-linecap:round;stroke-linejoin:round;" /><path d="M -97.20000000000006,388.79999999999995 L -97.20000000000007,437.4 L -97.20000000000007,486.0" style="stroke:black;fill:none;stroke-width:2.0;stroke-linecap:round;stroke-linejoin:round;" /><path d="M -97.20000000000007,486.0 L -48.60000000000007,486.0 L -7.194245199571014e-14,486.0" style="stroke:black;fill:none;stroke-width:2.0;stroke-linecap:round;stroke-linejoin:round;" /><text x="0.0" y="-29.5" fill="black" font-size="14.0" font-family="sans" text-anchor="middle" transform="rotate(0 0.0 -18.299999999999997)"><tspan x="0.0" dy="11.200000000000001">3.3V</tspan></text><text x="-11.340000000000027" y="138.1" fill="black" font-size="14.0" font-family="sans" text-anchor="end" transform="rotate(0 -11.340000000000027 143.7)"><tspan x="-11.340000000000027" dy="11.200000000000001">1.35KΩ</tspan></text><text x="-11.340000000000062" y="332.5" fill="black" font-size="14.0" font-family="sans" text-anchor="end" transform="rotate(0 -11.340000000000062 338.09999999999997)"><tspan x="-11.340000000000062" dy="11.200000000000001">2KΩ</tspan></text><text x="85.85999999999997" y="235.29999999999998" fill="black" font-size="14.0" font-family="sans" text-anchor="end" transform="rotate(0 85.85999999999997 240.89999999999998)"><tspan x="85.85999999999997" dy="11.200000000000001">15nF</tspan></text><text x="-100.44000000000003" y="235.29999999999998" fill="black" font-size="14.0" font-family="sans" text-anchor="end" transform="rotate(0 -100.44000000000003 240.89999999999998)"><tspan x="-100.44000000000003" dy="11.200000000000001">1H</tspan></text><circle cx="-3.571070066313682e-14" cy="194.39999999999998" r="2.4299999999999997" style="stroke:black;fill:black;stroke-width:2.0;" /><circle cx="-3.571070066313682e-14" cy="194.39999999999998" r="2.4299999999999997" style="stroke:black;fill:black;stroke-width:2.0;" /></svg>
