<svg xmlns="http://www.w3.org/2000/svg" xml:lang="en" height="362.05600000000004pt" width="86.69560000000003pt" viewBox="-55.190000000000026 -44.480000000000004 86.69560000000003 362.05600000000004"><path d="M 0.0,-0.0 L 0.0,-12.96" style="stroke:black;fill:none;stroke-width:2.0;stroke-linecap:round;stroke-linejoin:round;" /><path d="M 0.0,-12.96 L -6.074999999999999,-12.96" style="stroke:black;fill:none;stroke-width:2.0;stroke-linecap:round;stroke-linejoin:round;" /><path d="M 0.0,-12.96 L 6.074999999999999,-12.96" style="stroke:black;fill:none;stroke-width:2.0;stroke-linecap:round;stroke-linejoin:round;" /><path d="M 0.0,-0.0 L -8.927675165784204e-15,48.599999999999994 L -1.785535033156841e-14,97.19999999999999" style="stroke:black;fill:none;stroke-width:2.0;stroke-linecap:round;stroke-linejoin:round;" /><path d="M -1.785535033156841e-14,97.19999999999999 L -2.3807133775424544e-14,129.6 L 8.099999999999975,132.29999999999998 L -8.100000000000025,137.7 L 8.099999999999973,143.09999999999997 L -8.100000000000026,148.49999999999997 L 8.099999999999971,153.9 L -8.100000000000028,159.29999999999998 L -2.975891721928068e-14,162.0 L -3.571070066313682e-14,194.39999999999998" style="stroke:black;fill:none;stroke-width:2.0;stroke-linecap:round;stroke-linejoin:round;" /><path d="M -3.571070066313682e-14,194.39999999999998 L -4.410271531897397e-14,240.084 M 8.099999999999955,240.084 L -8.100000000000044,240.084 M 8.099999999999953,245.916 L -8.100000000000044,245.916 M -4.5174036338868074e-14,245.916 L -5.3566050994705226e-14,291.59999999999997" style="stroke:black;fill:none;stroke-width:2.0;stroke-linecap:round;stroke-linejoin:round;" /><path d="M -5.3566050994705226e-14,291.59999999999997 L -5.3566050994705226e-14,304.56 L -8.100000000000053,304.56 L 8.099999999999946,304.56 M -5.670000000000053,308.448 L 5.669999999999946,308.448 M -1.6200000000000536,312.336 L 1.6199999999999466,312.336" style="stroke:black;fill:none;stroke-width:2.0;stroke-linecap:round;stroke-linejoin:round;" /><text x="0.0" y="-29.5" fill="black" font-size="14.0" font-family="sans" text-anchor="middle" transform="rotate(0 0.0 -18.299999999999997)"><tspan x="0.0" dy="11.200000000000001">3.3V</tspan></text><text x="-11.340000000000027" y="138.1" fill="black" font-size="14.0" font-family="sans" text-anchor="end" transform="rotate(0 -11.340000000000027 143.7)"><tspan x="-11.340000000000027" dy="11.200000000000001">100Ω</tspan></text><text x="-11.340000000000044" y="235.29999999999998" fill="black" font-size="14.0" font-family="sans" text-anchor="end" transform="rotate(0 -11.340000000000044 240.89999999999998)"><tspan x="-11.340000000000044" dy="11.200000000000001">0.1μF</tspan></text></svg>